# xmcd CD database file
#
# Track frame offsets:
#	150
#	36697
#	66532
#	96680
#	125347
#	154870
#	180532
#	213237
#	246225
#	278065
#	306225
#
# Disc length: 4471 seconds
#
# Revision: 3
# Processed by: cddbd v1.5.1PL0 Copyright (c) Steve Scherf et al.
# Submitted via: CDex 1.51
#
DISCID=ab11750b
DTITLE=Reinhard Mey - Lampenfieber [CD 1)
DYEAR=1999
DGENRE=Ballad
TTITLE0=Alle rennen
TTITLE1=Noch´n Lied
TTITLE2=What a lucky man you are
TTITLE3=Deine Zettel
TTITLE4=Das Etikett
TTITLE5=Es ist immer zu spät
TTITLE6=Der Biker
TTITLE7=Flaschenpost
TTITLE8=Pöter
TTITLE9=Der Nasenmann
TTITLE10=Der unendliche Tango
EXTD=CD 1 YEAR: 1999
EXTT0=
EXTT1=
EXTT2=
EXTT3=
EXTT4=
EXTT5=
EXTT6=
EXTT7=
EXTT8=
EXTT9=
EXTT10=
PLAYORDER=
